<svg xmlns="http://www.w3.org/2000/svg" viewBox="0 0 1260.89 72.01"><g id="Calque_2" data-name="Calque 2"><g id="Calque_1-2" data-name="Calque 1"><path d="M.5,6.1c1.22.05,2.86.1,4.93.15s4.12.07,6.17.07q3.49,0,6.79-.07c2.19,0,3.74-.08,4.67-.08q9,0,13.54,3.22a9.76,9.76,0,0,1,4.49,8.25,10.25,10.25,0,0,1-1.53,5.18,14.15,14.15,0,0,1-4.75,4.67,23.47,23.47,0,0,1-8.32,3v.15a30.29,30.29,0,0,1,10.88,2.48,13.8,13.8,0,0,1,5.76,4.75,10.62,10.62,0,0,1,1.75,5.76,11.91,11.91,0,0,1-5.36,10.51q-5.37,3.66-14.78,3.65c-1.17,0-2.86,0-5.08-.1s-4.85-.11-7.92-.11q-3.21,0-6.31,0c-2.07,0-3.71.09-4.93.18V56.32A12.6,12.6,0,0,0,4,55.74,2.52,2.52,0,0,0,5.57,54,14.29,14.29,0,0,0,6,50.05V13.84a14.22,14.22,0,0,0-.41-4A2.62,2.62,0,0,0,4,8.11,10.8,10.8,0,0,0,.5,7.56ZM22.11,7.56c-1.9,0-3.13.41-3.69,1.24s-.84,2.51-.84,5V50.05c0,2.53.32,4.17,1,4.92s2,1.14,4.09,1.14q5.25,0,7.7-3.33t2.45-9.45c0-3.75-.94-6.64-2.81-8.69s-5-3.06-9.31-3.06H14.44V30.34h6.28A7.59,7.59,0,0,0,26,28.69a8.78,8.78,0,0,0,2.55-4.38,22.53,22.53,0,0,0,.73-5.87c0-3.6-.56-6.32-1.68-8.14A5.91,5.91,0,0,0,22.11,7.56Z" style="fill:none;stroke:#fff;stroke-miterlimit:10"/><path d="M67.66,19q6.42,0,10.07,3.8t3.65,12.41h-24l-.15-1.39h15a36.32,36.32,0,0,0-.44-6.61,14.06,14.06,0,0,0-1.61-4.85,3.3,3.3,0,0,0-2.92-1.83c-1.7,0-3.15,1.08-4.34,3.22S61,29.46,60.72,34.43l.22.43c0,.59-.08,1.2-.11,1.83s0,1.29,0,2a19.9,19.9,0,0,0,1.42,8.17,10.31,10.31,0,0,0,3.61,4.57,8.1,8.1,0,0,0,4.46,1.42,12.37,12.37,0,0,0,4.78-1.09C76.8,51,78.41,49.41,79.92,47l1.32.44a19,19,0,0,1-2.78,5.4,15.24,15.24,0,0,1-4.81,4.31,13.86,13.86,0,0,1-7,1.68,17.7,17.7,0,0,1-8.76-2.12,14.52,14.52,0,0,1-6-6.42,24.43,24.43,0,0,1-2.16-11A24.91,24.91,0,0,1,52.07,28a15.38,15.38,0,0,1,6.36-6.75A18.76,18.76,0,0,1,67.66,19Z" style="fill:none;stroke:#fff;stroke-miterlimit:10"/><path d="M104.6,19a20.76,20.76,0,0,1,5.22.62,14.57,14.57,0,0,1,3.9,1.57,8.81,8.81,0,0,1,3,2.89,7.45,7.45,0,0,1,1.06,4,5.75,5.75,0,0,1-1.61,4.2A5.54,5.54,0,0,1,112,33.91a5.66,5.66,0,0,1-4.09-1.46,5.17,5.17,0,0,1-1.53-3.94,5.5,5.5,0,0,1,1.46-3.9,7,7,0,0,1,3.36-2.08,4.64,4.64,0,0,0-1.75-1.25,6.7,6.7,0,0,0-2.63-.51,6.34,6.34,0,0,0-4,1.32,10.15,10.15,0,0,0-2.88,3.65,21.42,21.42,0,0,0-1.79,5.47,35,35,0,0,0-.62,6.86,22.3,22.3,0,0,0,1.42,8.84,9.4,9.4,0,0,0,3.65,4.52,9,9,0,0,0,4.64,1.32,12.11,12.11,0,0,0,4.67-1.13,11.54,11.54,0,0,0,4.89-4.79l1.24.44a19.81,19.81,0,0,1-2.63,5.41,14.53,14.53,0,0,1-4.74,4.41,14,14,0,0,1-7.16,1.72,17.73,17.73,0,0,1-8.57-2.08,15.12,15.12,0,0,1-6.14-6.43,23.89,23.89,0,0,1-2.3-11.2A23.34,23.34,0,0,1,88.87,28a16,16,0,0,1,6.46-6.76A18.88,18.88,0,0,1,104.6,19Z" style="fill:none;stroke:#fff;stroke-miterlimit:10"/><path d="M131.46,58.3q-4.89,0-7.08-2.56a9.2,9.2,0,0,1-2.19-6.2,8.49,8.49,0,0,1,1.42-5.11,11.28,11.28,0,0,1,3.69-3.25,27.35,27.35,0,0,1,4.78-2.12q2.52-.84,4.82-1.68a14,14,0,0,0,3.72-1.93,3.37,3.37,0,0,0,1.43-2.78V27a8.88,8.88,0,0,0-.62-3.4,4.91,4.91,0,0,0-1.9-2.3,6.2,6.2,0,0,0-3.32-.8,11.23,11.23,0,0,0-2.92.4,5.33,5.33,0,0,0-2.41,1.35,6.65,6.65,0,0,1,3.17,2.23,5.45,5.45,0,0,1,1.13,3.39,4.93,4.93,0,0,1-1.71,3.95,6.09,6.09,0,0,1-4.05,1.46,4.83,4.83,0,0,1-4-1.65,6,6,0,0,1-1.35-4,5.59,5.59,0,0,1,1.06-3.51,11.87,11.87,0,0,1,2.95-2.63A18.32,18.32,0,0,1,133,19.68a27.91,27.91,0,0,1,6.24-.66,24,24,0,0,1,6.06.7,9.71,9.71,0,0,1,4.53,2.51,8,8,0,0,1,2.19,4.13,31,31,0,0,1,.51,6.17V52.38a6.05,6.05,0,0,0,.36,2.48,1.29,1.29,0,0,0,1.24.74,2.86,2.86,0,0,0,1.39-.37,6.52,6.52,0,0,0,1.24-.88l.73,1.25a10.81,10.81,0,0,1-3.54,2,13.74,13.74,0,0,1-4.49.7q-4.38,0-5.8-1.79a6.8,6.8,0,0,1-1.5-4.13,12.13,12.13,0,0,1-4.49,4.46A12.82,12.82,0,0,1,131.46,58.3Zm5.62-4.68a5.27,5.27,0,0,0,2.59-.65,7.36,7.36,0,0,0,2.38-2.34v-15a7.42,7.42,0,0,1-2.45,2.44c-1,.66-2.12,1.36-3.21,2.12a9.55,9.55,0,0,0-2.74,2.88,8.75,8.75,0,0,0-1.09,4.67c0,2.1.43,3.59,1.31,4.49A4.32,4.32,0,0,0,137.08,53.62Z" style="fill:none;stroke:#fff;stroke-miterlimit:10"/><path d="M196,19.24V49.83a9.05,9.05,0,0,0,1,4.85,4,4,0,0,0,3.65,1.57v1.53c-1.5-.14-3-.21-4.52-.21-2,0-3.94.07-5.7.21a31.51,31.51,0,0,0-5,.81V52a10.92,10.92,0,0,1-4.85,5.22,15.16,15.16,0,0,1-6.9,1.57,12.83,12.83,0,0,1-5-.81,8.07,8.07,0,0,1-3-2A7.94,7.94,0,0,1,164,52.31a27.41,27.41,0,0,1-.51-5.84V28a9.28,9.28,0,0,0-1-4.85c-.66-1-1.88-1.57-3.68-1.57V20c1.55.15,3.06.22,4.52.22,2,0,3.95-.08,5.73-.25a39.58,39.58,0,0,0,4.93-.77V49.46a14.05,14.05,0,0,0,.33,3.22,3.8,3.8,0,0,0,1.27,2.15,4.36,4.36,0,0,0,2.78.77,6.36,6.36,0,0,0,5-2.45,9,9,0,0,0,2.08-6V28a9.28,9.28,0,0,0-1-4.85c-.65-1-1.88-1.57-3.68-1.57V20c1.56.15,3.06.22,4.52.22,2,0,4-.08,5.73-.25A39.58,39.58,0,0,0,196,19.24Z" style="fill:none;stroke:#fff;stroke-miterlimit:10"/><path d="M218.33,19a17,17,0,0,1,5.36.77A13.57,13.57,0,0,1,227,21.28q2.47,1.7,3.06-2.19h1.54c-.1,1.37-.18,3-.22,5s-.08,4.58-.08,7.84h-1.53a23.28,23.28,0,0,0-1.39-5.33,10.7,10.7,0,0,0-3-4.3,7.36,7.36,0,0,0-5-1.68,5.43,5.43,0,0,0-3.58,1.2,4.26,4.26,0,0,0-1.46,3.47,6,6,0,0,0,1.31,3.83,17.06,17.06,0,0,0,3.4,3.14q2.07,1.5,4.34,3.18a43.49,43.49,0,0,1,6.17,5.44A10.07,10.07,0,0,1,233.15,48a9,9,0,0,1-1.9,5.73,12.19,12.19,0,0,1-5,3.76,17.47,17.47,0,0,1-6.9,1.32,15.86,15.86,0,0,1-3.9-.44,13.19,13.19,0,0,1-3-1.1l-1.79-.84c-.56-.26-1.08-.49-1.57-.69a1.13,1.13,0,0,0-1.28.51,5.53,5.53,0,0,0-.84,2h-1.53c.1-1.56.17-3.46.22-5.7s.07-5.21.07-8.9h1.54a27.91,27.91,0,0,0,1.6,7,11.51,11.51,0,0,0,3.18,4.74,7.51,7.51,0,0,0,5.07,1.72,5.7,5.7,0,0,0,3.51-1.21,4.67,4.67,0,0,0,1.6-4,7.27,7.27,0,0,0-2.08-5.33A51.18,51.18,0,0,0,214.9,42q-2.34-1.91-4.42-3.76a17.09,17.09,0,0,1-3.39-4.09,9.75,9.75,0,0,1-1.32-5.07,8.85,8.85,0,0,1,1.75-5.55,10.71,10.71,0,0,1,4.64-3.4A16.82,16.82,0,0,1,218.33,19Z" style="fill:none;stroke:#fff;stroke-miterlimit:10"/><path d="M256.43,19c4.29,0,7.64,1.27,10.08,3.8s3.65,6.67,3.65,12.41h-24L246,33.84h15a35.44,35.44,0,0,0-.44-6.61,14.07,14.07,0,0,0-1.6-4.85A3.31,3.31,0,0,0,256,20.55c-1.71,0-3.15,1.08-4.35,3.22s-1.91,5.69-2.15,10.66l.22.43c-.05.59-.09,1.2-.11,1.83s0,1.29,0,2A19.89,19.89,0,0,0,251,46.83a10.31,10.31,0,0,0,3.61,4.57,8.06,8.06,0,0,0,4.45,1.42,12.33,12.33,0,0,0,4.78-1.09A11.36,11.36,0,0,0,268.7,47l1.31.44a19,19,0,0,1-2.77,5.4,15.27,15.27,0,0,1-4.82,4.31,13.83,13.83,0,0,1-7,1.68,17.7,17.7,0,0,1-8.76-2.12,14.58,14.58,0,0,1-6-6.42,24.57,24.57,0,0,1-2.15-11A24.91,24.91,0,0,1,240.85,28a15.36,15.36,0,0,1,6.35-6.75A18.79,18.79,0,0,1,256.43,19Z" style="fill:none;stroke:#fff;stroke-miterlimit:10"/><path d="M310.23,19c4.29,0,7.64,1.27,10.08,3.8S324,29.49,324,35.23h-24l-.14-1.39h15a35.44,35.44,0,0,0-.44-6.61,14.07,14.07,0,0,0-1.6-4.85,3.31,3.31,0,0,0-2.92-1.83c-1.71,0-3.15,1.08-4.35,3.22s-1.91,5.69-2.15,10.66l.22.43c0,.59-.09,1.2-.11,1.83s0,1.29,0,2a19.89,19.89,0,0,0,1.43,8.17,10.31,10.31,0,0,0,3.61,4.57,8.06,8.06,0,0,0,4.45,1.42,12.33,12.33,0,0,0,4.78-1.09A11.36,11.36,0,0,0,322.5,47l1.31.44a19,19,0,0,1-2.77,5.4,15.27,15.27,0,0,1-4.82,4.31,13.83,13.83,0,0,1-7,1.68,17.7,17.7,0,0,1-8.76-2.12,14.58,14.58,0,0,1-5.95-6.42,24.57,24.57,0,0,1-2.15-11A24.91,24.91,0,0,1,294.65,28,15.36,15.36,0,0,1,301,21.25,18.79,18.79,0,0,1,310.23,19Z" style="fill:none;stroke:#fff;stroke-miterlimit:10"/><path d="M362.72,20V21.5a5.64,5.64,0,0,0-2.63,1.72,14.19,14.19,0,0,0-2.41,4.56L347,57.93c-.78,0-1.57-.07-2.38-.07s-1.59,0-2.37.07l-13-32.27c-.78-1.89-1.55-3.05-2.3-3.46a4.15,4.15,0,0,0-1.94-.62V20c1.56.1,3.18.19,4.86.26s3.51.11,5.51.11c1.51,0,3.1,0,4.78-.11s3.25-.16,4.71-.26v1.54a24.88,24.88,0,0,0-2.74.14,2,2,0,0,0-1.64,1,4.19,4.19,0,0,0,.15,2.85l8.54,22.63-.73,1,5.76-16c1.37-3.94,1.58-6.82.66-8.65a5.53,5.53,0,0,0-4.82-3V20l3.62.15c1.28,0,2.42.07,3.39.07s2,0,3.07-.07S362.09,20.09,362.72,20Z" style="fill:none;stroke:#fff;stroke-miterlimit:10"/><path d="M382.29,19q6.42,0,10.07,3.8T396,35.23H372l-.14-1.39h15a35.44,35.44,0,0,0-.44-6.61,14.07,14.07,0,0,0-1.6-4.85,3.31,3.31,0,0,0-2.92-1.83c-1.71,0-3.15,1.08-4.35,3.22s-1.91,5.69-2.15,10.66l.22.43c-.05.59-.09,1.2-.11,1.83s0,1.29,0,2a19.89,19.89,0,0,0,1.43,8.17,10.31,10.31,0,0,0,3.61,4.57,8.06,8.06,0,0,0,4.45,1.42,12.33,12.33,0,0,0,4.78-1.09A11.36,11.36,0,0,0,394.55,47l1.31.44a19,19,0,0,1-2.77,5.4,15.27,15.27,0,0,1-4.82,4.31,13.83,13.83,0,0,1-7,1.68,17.7,17.7,0,0,1-8.76-2.12,14.58,14.58,0,0,1-5.95-6.42,24.57,24.57,0,0,1-2.15-11A24.91,24.91,0,0,1,366.7,28a15.36,15.36,0,0,1,6.35-6.75A18.8,18.8,0,0,1,382.29,19Z" style="fill:none;stroke:#fff;stroke-miterlimit:10"/><path d="M424.92,19a6.63,6.63,0,0,1,3.79,1,5.91,5.91,0,0,1,2.16,2.52,7.72,7.72,0,0,1,.69,3.21A6.25,6.25,0,0,1,430,30.15a5.31,5.31,0,0,1-4.12,1.72,5.75,5.75,0,0,1-4-1.28,4.33,4.33,0,0,1-1.43-3.39,6,6,0,0,1,.92-3.4,8.53,8.53,0,0,1,2.3-2.3,3.27,3.27,0,0,0-2.05.08,6,6,0,0,0-3.39,1.79,10.9,10.9,0,0,0-2.37,3.54,10,10,0,0,0-.88,4V50.27q0,3.49,1.71,4.74a8.77,8.77,0,0,0,5.15,1.24v1.53L417,57.6q-3.21-.1-6.72-.11-2.91,0-5.91.11l-4.52.18V56.25a4.9,4.9,0,0,0,3.61-1.09c.7-.73,1.06-2.12,1.06-4.16V28a9.28,9.28,0,0,0-1-4.85c-.66-1-1.89-1.57-3.68-1.57V20c1.55.15,3.06.22,4.52.22,2.05,0,3.95-.08,5.73-.25a39.58,39.58,0,0,0,4.93-.77V26a13.17,13.17,0,0,1,2.34-3.58,10.91,10.91,0,0,1,3.35-2.52A9.8,9.8,0,0,1,424.92,19Z" style="fill:none;stroke:#fff;stroke-miterlimit:10"/><path d="M469.59,20V21.5A5.64,5.64,0,0,0,467,23.22a14,14,0,0,0-2.4,4.56l-10.3,28.91-2.7,5.11L435.65,25.66c-.83-1.89-1.64-3.05-2.45-3.46a4.59,4.59,0,0,0-2.08-.62V20c1.61.15,3.27.26,5,.33s3.4.11,5,.11c2,0,3.82-.05,5.48-.14l4.67-.3v1.54a19.7,19.7,0,0,0-2.74.18,2.22,2.22,0,0,0-1.75,1c-.32.56-.18,1.52.4,2.88l9.2,22.2-.66.43,5.4-15.11q2.06-5.91.66-8.65a5.58,5.58,0,0,0-4.89-3V20l3.65.15c1.31,0,2.46.07,3.43.07s2,0,3.07-.07S469,20.09,469.59,20ZM454.26,56.69l-2.77,7.81a12,12,0,0,1-3.21,5.18A7,7,0,0,1,445.65,71a13,13,0,0,1-3.72.48,12.36,12.36,0,0,1-3.62-.58,7.28,7.28,0,0,1-3.1-1.9A4.7,4.7,0,0,1,434,65.67a4.43,4.43,0,0,1,1.61-3.61,7.24,7.24,0,0,1,8.17-.19,4,4,0,0,1,1.53,3.43,4.78,4.78,0,0,1-.91,2.78,5.5,5.5,0,0,1-2.74,2,4.55,4.55,0,0,0,.88.07h.8a5.92,5.92,0,0,0,3.87-1.38A10.07,10.07,0,0,0,450,64.36l2.55-7.52Z" style="fill:none;stroke:#fff;stroke-miterlimit:10"/><path d="M486.6,8.07V20h8.62V21.5H486.6V51a4.73,4.73,0,0,0,.8,3.1,3,3,0,0,0,2.41.91,4.39,4.39,0,0,0,2.63-1,8.09,8.09,0,0,0,2.34-3.4l1.24.66a12.87,12.87,0,0,1-3.54,5.4A9.36,9.36,0,0,1,486,58.81a13.29,13.29,0,0,1-4.24-.62,7.85,7.85,0,0,1-3.06-1.87,7.76,7.76,0,0,1-2.12-4,30.33,30.33,0,0,1-.51-6.17V21.5H470V20h6.13V10.41a27.11,27.11,0,0,0,5.66-.55A17.44,17.44,0,0,0,486.6,8.07Z" style="fill:none;stroke:#fff;stroke-miterlimit:10"/><path d="M512.3.7V25.81a10.73,10.73,0,0,1,4.92-5.29,15.85,15.85,0,0,1,7-1.5,13.66,13.66,0,0,1,5,.77,7.36,7.36,0,0,1,3,2.08A8.27,8.27,0,0,1,534,25.45a25.07,25.07,0,0,1,.55,5.91V51c0,2,.35,3.43,1.06,4.16a4.9,4.9,0,0,0,3.61,1.09v1.53L535,57.6c-1.88-.07-3.69-.11-5.44-.11s-3.74,0-5.51.11l-4,.18V56.25a3.7,3.7,0,0,0,3.06-1.09c.59-.73.88-2.12.88-4.16V28.29a12.41,12.41,0,0,0-.36-3.17A3.91,3.91,0,0,0,522.33,23a4.48,4.48,0,0,0-2.81-.77,6.67,6.67,0,0,0-5.11,2.34,8.69,8.69,0,0,0-2.11,6.06V51c0,2,.29,3.43.87,4.16a3.74,3.74,0,0,0,3.07,1.09v1.53l-3.87-.18c-1.7-.07-3.43-.11-5.18-.11s-3.81,0-5.73.11l-4.35.18V56.25a4.91,4.91,0,0,0,3.62-1.09c.7-.73,1.06-2.12,1.06-4.16V9.46a9.34,9.34,0,0,0-1-4.86c-.66-1-1.89-1.57-3.69-1.57V1.5c1.56.15,3.07.22,4.53.22,2,0,3.89-.08,5.69-.25A39.68,39.68,0,0,0,512.3.7Z" style="fill:none;stroke:#fff;stroke-miterlimit:10"/><path d="M557,19.24V51c0,2,.36,3.43,1.06,4.16a4.91,4.91,0,0,0,3.62,1.09v1.53l-4.13-.18c-1.82-.07-3.68-.11-5.58-.11s-3.82,0-5.77.11l-4.38.18V56.25a4.89,4.89,0,0,0,3.61-1.09c.71-.73,1.06-2.12,1.06-4.16V28a9.39,9.39,0,0,0-1-4.85c-.66-1-1.89-1.57-3.69-1.57V20c1.56.15,3.07.22,4.53.22,2,0,4-.08,5.73-.25A39.41,39.41,0,0,0,557,19.24Zm-5.69-18a7.34,7.34,0,0,1,4.86,1.5A5.07,5.07,0,0,1,558,6.83,5.11,5.11,0,0,1,556.21,11a8.65,8.65,0,0,1-9.71,0,5.08,5.08,0,0,1-1.79-4.13,5,5,0,0,1,1.79-4.12A7.31,7.31,0,0,1,551.35,1.21Z" style="fill:none;stroke:#fff;stroke-miterlimit:10"/><path d="M592,19a13.78,13.78,0,0,1,5,.77,7.34,7.34,0,0,1,3,2.08,8.8,8.8,0,0,1,1.72,3.58,25.7,25.7,0,0,1,.54,5.91V51c0,2,.36,3.43,1.06,4.16A4.91,4.91,0,0,0,607,56.25v1.53l-4.17-.18c-1.85-.07-3.67-.11-5.47-.11s-3.66,0-5.44.11l-4,.18V56.25a3.74,3.74,0,0,0,3.07-1.09c.58-.73.87-2.12.87-4.16V28.29a12.41,12.41,0,0,0-.36-3.17A4,4,0,0,0,590.11,23a4.45,4.45,0,0,0-2.84-.77,6.56,6.56,0,0,0-5.15,2.41A8.94,8.94,0,0,0,580,30.7V51c0,2,.3,3.43.91,4.16a3.74,3.74,0,0,0,3,1.09v1.53l-3.83-.18c-1.68-.07-3.42-.11-5.22-.11s-3.75,0-5.7.11l-4.38.18V56.25a4.91,4.91,0,0,0,3.62-1.09c.7-.73,1.06-2.12,1.06-4.16V28a9.28,9.28,0,0,0-1-4.85c-.66-1-1.89-1.57-3.69-1.57V20c1.56.15,3.07.22,4.53.22,2,0,4-.08,5.73-.25a39.58,39.58,0,0,0,4.93-.77v6.57a10.94,10.94,0,0,1,5-5.26A15.78,15.78,0,0,1,592,19Z" style="fill:none;stroke:#fff;stroke-miterlimit:10"/><path d="M623.33,71.51a38.39,38.39,0,0,1-8.07-.77,13.72,13.72,0,0,1-5.55-2.33,4.74,4.74,0,0,1-2-3.84,5.29,5.29,0,0,1,2-4,14.63,14.63,0,0,1,6.06-2.81l.66,1.17a6.85,6.85,0,0,0-2,2.37,6.08,6.08,0,0,0-.62,2.67,5.17,5.17,0,0,0,2.81,4.7,15.05,15.05,0,0,0,7.63,1.65,18.06,18.06,0,0,0,5.87-.88,9,9,0,0,0,4.09-2.63,6.37,6.37,0,0,0,1.5-4.3,4.86,4.86,0,0,0-1.61-3.69q-1.61-1.5-6.42-1.5h-4.53a18.9,18.9,0,0,1-5.22-.65,7.12,7.12,0,0,1-3.46-2.08,5.31,5.31,0,0,1-1.25-3.62,7.34,7.34,0,0,1,2.41-5.4,23.75,23.75,0,0,1,7.16-4.38l.73.58A25.62,25.62,0,0,0,621,43.59a3.07,3.07,0,0,0-1.21,2.51c0,1.56,1,2.34,2.92,2.34h8a20.47,20.47,0,0,1,10.07,2.23q4,2.22,4,7.41a10.86,10.86,0,0,1-2.3,6.64,15.67,15.67,0,0,1-7,4.93A33.28,33.28,0,0,1,623.33,71.51Zm.73-29.27a18.16,18.16,0,0,1-10.37-2.81q-4.16-2.82-4.16-8.8t4.16-8.83a20.79,20.79,0,0,1,20.77,0q4.13,2.77,4.13,8.83t-4.13,8.8A18.1,18.1,0,0,1,624.06,42.24Zm0-1.32a3.36,3.36,0,0,0,3.06-2.22c.74-1.49,1.1-4.18,1.1-8.07s-.36-6.58-1.1-8.07a3.36,3.36,0,0,0-3.06-2.22,3.39,3.39,0,0,0-3,2.22c-.76,1.49-1.13,4.18-1.13,8.07s.37,6.58,1.13,8.07A3.39,3.39,0,0,0,624.06,40.92ZM635.45,25.3,634,24.79A10.86,10.86,0,0,1,637.53,20a8.47,8.47,0,0,1,5.29-1.89,4.3,4.3,0,0,1,4.75,4.59A4.2,4.2,0,0,1,646.4,26a3.81,3.81,0,0,1-2.63,1.06,3.53,3.53,0,0,1-2.3-.87,3.7,3.7,0,0,1-1.21-2.67,9.51,9.51,0,0,1,1.25-4.63l.51.43a11.87,11.87,0,0,0-4.16,2.38A11.55,11.55,0,0,0,635.45,25.3Z" style="fill:none;stroke:#fff;stroke-miterlimit:10"/><path d="M683.84,19a14.22,14.22,0,0,1,5.66,1.06,8,8,0,0,1,3.83,3.54l-.87.8a5.71,5.71,0,0,0-2.52-2.51,7.36,7.36,0,0,0-3.32-.77q-3.72,0-5.91,4.34t-2.12,13.4a46.39,46.39,0,0,0,.84,9.89,11,11,0,0,0,2.41,5.29,4.91,4.91,0,0,0,3.61,1.61,6.16,6.16,0,0,0,4.45-2A7.7,7.7,0,0,0,692,48.37l.36,2.55a11.29,11.29,0,0,1-3.54,5.88,9.73,9.73,0,0,1-6.38,2,14.23,14.23,0,0,1-7.7-2.12,13.84,13.84,0,0,1-5.3-6.53,29.38,29.38,0,0,1-1.89-11.43,25,25,0,0,1,2.11-11,15,15,0,0,1,5.81-6.54A16,16,0,0,1,683.84,19ZM702.46.63V49.76a9.07,9.07,0,0,0,1,4.85c.68,1,1.9,1.57,3.65,1.57v1.53c-1.51-.14-3-.22-4.52-.22-2.05,0-4,.08-5.73.22a28.67,28.67,0,0,0-4.93.81V9.39a9.34,9.34,0,0,0-1-4.86c-.66-1-1.88-1.57-3.68-1.57V1.43c1.55.14,3.06.22,4.52.22,2,0,3.89-.09,5.7-.26A39.87,39.87,0,0,0,702.46.63Z" style="fill:none;stroke:#fff;stroke-miterlimit:10"/><path d="M729,19q6.42,0,10.07,3.8t3.65,12.41h-24l-.15-1.39h15a36.32,36.32,0,0,0-.44-6.61,14.06,14.06,0,0,0-1.61-4.85,3.3,3.3,0,0,0-2.92-1.83c-1.7,0-3.15,1.08-4.34,3.22s-1.91,5.69-2.15,10.66l.21.43c0,.59-.08,1.2-.1,1.83s0,1.29,0,2a19.9,19.9,0,0,0,1.42,8.17,10.33,10.33,0,0,0,3.62,4.57,8.06,8.06,0,0,0,4.45,1.42,12.37,12.37,0,0,0,4.78-1.09A11.29,11.29,0,0,0,741.29,47l1.32.44a19,19,0,0,1-2.78,5.4A15.24,15.24,0,0,1,735,57.13a13.86,13.86,0,0,1-7,1.68,17.7,17.7,0,0,1-8.76-2.12,14.52,14.52,0,0,1-6-6.42,24.44,24.44,0,0,1-2.15-11A24.78,24.78,0,0,1,713.45,28a15.3,15.3,0,0,1,6.35-6.75A18.76,18.76,0,0,1,729,19Z" style="fill:none;stroke:#fff;stroke-miterlimit:10"/><path d="M756.62,58.3q-4.89,0-7.08-2.56a9.2,9.2,0,0,1-2.19-6.2,8.49,8.49,0,0,1,1.43-5.11,11.25,11.25,0,0,1,3.68-3.25,27.45,27.45,0,0,1,4.79-2.12c1.67-.56,3.28-1.12,4.81-1.68a13.92,13.92,0,0,0,3.73-1.93,3.39,3.39,0,0,0,1.42-2.78V27a8.88,8.88,0,0,0-.62-3.4,4.91,4.91,0,0,0-1.9-2.3,6.2,6.2,0,0,0-3.32-.8,11.29,11.29,0,0,0-2.92.4A5.38,5.38,0,0,0,756,22.23a6.73,6.73,0,0,1,3.18,2.23,5.51,5.51,0,0,1,1.13,3.39,4.94,4.94,0,0,1-1.72,3.95,6.05,6.05,0,0,1-4,1.46,4.85,4.85,0,0,1-4-1.65,6,6,0,0,1-1.35-4,5.59,5.59,0,0,1,1.06-3.51,11.75,11.75,0,0,1,3-2.63,18.24,18.24,0,0,1,4.92-1.82,28.07,28.07,0,0,1,6.25-.66,24,24,0,0,1,6,.7A9.71,9.71,0,0,1,775,22.23a8,8,0,0,1,2.19,4.13,31,31,0,0,1,.51,6.17V52.38a5.85,5.85,0,0,0,.37,2.48,1.27,1.27,0,0,0,1.24.74,2.83,2.83,0,0,0,1.38-.37,6.58,6.58,0,0,0,1.25-.88l.73,1.25a11,11,0,0,1-3.55,2,13.67,13.67,0,0,1-4.48.7q-4.38,0-5.81-1.79a6.73,6.73,0,0,1-1.49-4.13,12.2,12.2,0,0,1-4.49,4.46A12.85,12.85,0,0,1,756.62,58.3Zm5.63-4.68a5.33,5.33,0,0,0,2.59-.65,7.44,7.44,0,0,0,2.37-2.34v-15a7.42,7.42,0,0,1-2.45,2.44c-1,.66-2.11,1.36-3.21,2.12a9.67,9.67,0,0,0-2.74,2.88,8.75,8.75,0,0,0-1.09,4.67c0,2.1.44,3.59,1.31,4.49A4.33,4.33,0,0,0,762.25,53.62Z" style="fill:none;stroke:#fff;stroke-miterlimit:10"/><path d="M799.69.63V51c0,2,.36,3.43,1.06,4.16a4.91,4.91,0,0,0,3.62,1.09v1.53l-4.16-.18c-1.86-.07-3.73-.11-5.63-.11s-3.8,0-5.73.11l-4.34.18V56.25a4.89,4.89,0,0,0,3.61-1.09c.71-.73,1.06-2.12,1.06-4.16V9.39a9.46,9.46,0,0,0-1-4.86c-.66-1-1.89-1.57-3.69-1.57V1.43c1.56.14,3.07.22,4.53.22,2,0,3.89-.09,5.69-.26A39.58,39.58,0,0,0,799.69.63Z" style="fill:none;stroke:#fff;stroke-miterlimit:10"/><path d="M822,19a17,17,0,0,1,5.36.77,13.29,13.29,0,0,1,3.32,1.49q2.49,1.7,3.07-2.19h1.53c-.09,1.37-.17,3-.21,5s-.08,4.58-.08,7.84h-1.53A23.81,23.81,0,0,0,832,26.61a10.8,10.8,0,0,0-2.95-4.3,7.36,7.36,0,0,0-5-1.68,5.43,5.43,0,0,0-3.58,1.2A4.23,4.23,0,0,0,819,25.3a6,6,0,0,0,1.31,3.83,17.06,17.06,0,0,0,3.4,3.14q2.07,1.5,4.34,3.18a43.49,43.49,0,0,1,6.17,5.44A10.07,10.07,0,0,1,836.78,48a9.11,9.11,0,0,1-1.9,5.73,12.19,12.19,0,0,1-5,3.76,17.47,17.47,0,0,1-6.9,1.32,16,16,0,0,1-3.91-.44,13.28,13.28,0,0,1-3-1.1l-1.79-.84c-.56-.26-1.08-.49-1.57-.69a1.13,1.13,0,0,0-1.28.51,5.53,5.53,0,0,0-.84,2h-1.53c.1-1.56.17-3.46.22-5.7s.07-5.21.07-8.9h1.53a28.34,28.34,0,0,0,1.61,7,11.51,11.51,0,0,0,3.18,4.74,7.49,7.49,0,0,0,5.07,1.72,5.68,5.68,0,0,0,3.5-1.21,4.65,4.65,0,0,0,1.61-4,7.27,7.27,0,0,0-2.08-5.33,51.18,51.18,0,0,0-5.29-4.6q-2.34-1.91-4.42-3.76a17.09,17.09,0,0,1-3.39-4.09,9.75,9.75,0,0,1-1.32-5.07,8.85,8.85,0,0,1,1.75-5.55,10.71,10.71,0,0,1,4.64-3.4A16.82,16.82,0,0,1,822,19Z" style="fill:none;stroke:#fff;stroke-miterlimit:10"/><path d="M873.79,20v1.54a19.22,19.22,0,0,0-2.81.18,1.92,1.92,0,0,0-1.61,1.06,4.22,4.22,0,0,0,.25,2.84l6.94,21.69-.95,1L884.15,20l1.46.66-11.17,37.3c-.78,0-1.55-.07-2.33-.07s-1.58,0-2.41.07L858.16,25.66c-.68-1.94-1.42-3.11-2.22-3.5a4.84,4.84,0,0,0-2-.58V20q2.34.23,4.86.33c1.67.08,3.51.11,5.51.11,1.5,0,3.1-.05,4.78-.14Zm38.1,0V21.5a5.77,5.77,0,0,0-2.63,1.68,13,13,0,0,0-2.33,4.6l-9.71,30.15c-.78,0-1.57-.07-2.37-.07s-1.6,0-2.38.07l-10.29-28.1,2-9.86c.88.05,1.77.06,2.67,0s1.79,0,2.66,0l10,29.49-.8-.8,4.89-15.48q1.89-6,.4-8.68a6,6,0,0,0-5.14-3V20c.77.05,1.61.09,2.51.11l2.7.08,2.3,0c1,0,2,0,3-.07S911.26,20.09,911.89,20Z" style="fill:none;stroke:#fff;stroke-miterlimit:10"/><path d="M928.83,19.24V51c0,2,.35,3.43,1.06,4.16a4.89,4.89,0,0,0,3.61,1.09v1.53l-4.12-.18c-1.83-.07-3.69-.11-5.59-.11s-3.82,0-5.77.11l-4.38.18V56.25a4.91,4.91,0,0,0,3.62-1.09c.7-.73,1.06-2.12,1.06-4.16V28a9.28,9.28,0,0,0-1-4.85c-.66-1-1.89-1.57-3.69-1.57V20c1.56.15,3.07.22,4.53.22,2,0,4-.08,5.73-.25A39.58,39.58,0,0,0,928.83,19.24Zm-5.7-18A7.34,7.34,0,0,1,928,2.71a5.08,5.08,0,0,1,1.79,4.12A5.11,5.11,0,0,1,928,11a8.65,8.65,0,0,1-9.71,0,5.11,5.11,0,0,1-1.79-4.13,5.08,5.08,0,0,1,1.79-4.12A7.31,7.31,0,0,1,923.13,1.21Z" style="fill:none;stroke:#fff;stroke-miterlimit:10"/><path d="M951.46,8.07V20h8.61V21.5h-8.61V51a4.67,4.67,0,0,0,.8,3.1,3,3,0,0,0,2.41.91,4.43,4.43,0,0,0,2.63-1,8.17,8.17,0,0,0,2.33-3.4l1.24.66a12.87,12.87,0,0,1-3.54,5.4,9.35,9.35,0,0,1-6.46,2.12,13.22,13.22,0,0,1-4.23-.62,7.89,7.89,0,0,1-3.07-1.87,7.75,7.75,0,0,1-2.11-4,29.54,29.54,0,0,1-.52-6.17V21.5h-6.13V20h6.13V10.41a27,27,0,0,0,5.66-.55A17.39,17.39,0,0,0,951.46,8.07Z" style="fill:none;stroke:#fff;stroke-miterlimit:10"/><path d="M977.15.7V25.81a10.75,10.75,0,0,1,4.93-5.29,15.81,15.81,0,0,1,7-1.5,13.76,13.76,0,0,1,5,.77,7.39,7.39,0,0,1,3,2.08,8.28,8.28,0,0,1,1.79,3.58,25.61,25.61,0,0,1,.55,5.91V51c0,2,.35,3.43,1.06,4.16a4.87,4.87,0,0,0,3.61,1.09v1.53l-4.2-.18c-1.87-.07-3.68-.11-5.44-.11s-3.73,0-5.51.11l-4,.18V56.25A3.73,3.73,0,0,0,988,55.16c.58-.73.88-2.12.88-4.16V28.29a12.38,12.38,0,0,0-.37-3.17A3.84,3.84,0,0,0,987.19,23a4.52,4.52,0,0,0-2.81-.77,6.64,6.64,0,0,0-5.11,2.34,8.69,8.69,0,0,0-2.12,6.06V51c0,2,.29,3.43.88,4.16a3.7,3.7,0,0,0,3.06,1.09v1.53l-3.87-.18c-1.7-.07-3.43-.11-5.18-.11s-3.81,0-5.73.11l-4.34.18V56.25a4.89,4.89,0,0,0,3.61-1.09c.71-.73,1.06-2.12,1.06-4.16V9.46a9.34,9.34,0,0,0-1-4.86C965,3.56,963.77,3,962,3V1.5c1.56.15,3.06.22,4.52.22,2,0,3.9-.08,5.7-.25A39.51,39.51,0,0,0,977.15.7Z" style="fill:none;stroke:#fff;stroke-miterlimit:10"/><path d="M1041,19a14.22,14.22,0,0,1,5.66,1.06,8,8,0,0,1,3.83,3.54l-.87.8a5.71,5.71,0,0,0-2.52-2.51,7.36,7.36,0,0,0-3.32-.77q-3.72,0-5.91,4.34t-2.12,13.4a46.39,46.39,0,0,0,.84,9.89,11,11,0,0,0,2.41,5.29,4.91,4.91,0,0,0,3.61,1.61,6.16,6.16,0,0,0,4.45-2,7.7,7.7,0,0,0,2.12-5.33l.37,2.55A11.35,11.35,0,0,1,1046,56.8a9.76,9.76,0,0,1-6.39,2,14.26,14.26,0,0,1-7.7-2.12,13.84,13.84,0,0,1-5.3-6.53,29.38,29.38,0,0,1-1.89-11.43,25,25,0,0,1,2.11-11,15,15,0,0,1,5.81-6.54A16,16,0,0,1,1041,19ZM1059.64.63V49.76a9.07,9.07,0,0,0,1,4.85c.68,1,1.9,1.57,3.65,1.57v1.53c-1.51-.14-3-.22-4.52-.22-2,0-4,.08-5.73.22a28.67,28.67,0,0,0-4.93.81V9.39a9.34,9.34,0,0,0-1-4.86c-.65-1-1.88-1.57-3.68-1.57V1.43c1.55.14,3.06.22,4.52.22,2,0,3.9-.09,5.7-.26A39.58,39.58,0,0,0,1059.64.63Z" style="fill:none;stroke:#fff;stroke-miterlimit:10"/><path d="M1086.21,19q6.42,0,10.08,3.8t3.64,12.41h-24l-.15-1.39h15a35.44,35.44,0,0,0-.44-6.61,14.06,14.06,0,0,0-1.61-4.85,3.3,3.3,0,0,0-2.92-1.83c-1.7,0-3.15,1.08-4.34,3.22s-1.91,5.69-2.15,10.66l.22.43c0,.59-.09,1.2-.11,1.83s0,1.29,0,2a19.9,19.9,0,0,0,1.42,8.17,10.33,10.33,0,0,0,3.62,4.57,8.06,8.06,0,0,0,4.45,1.42,12.37,12.37,0,0,0,4.78-1.09,11.29,11.29,0,0,0,4.85-4.75l1.32.44a18.76,18.76,0,0,1-2.78,5.4,15.24,15.24,0,0,1-4.81,4.31,13.86,13.86,0,0,1-7,1.68,17.7,17.7,0,0,1-8.76-2.12,14.52,14.52,0,0,1-6-6.42,24.44,24.44,0,0,1-2.15-11,24.78,24.78,0,0,1,2.3-11.32,15.36,15.36,0,0,1,6.35-6.75A18.76,18.76,0,0,1,1086.21,19Z" style="fill:none;stroke:#fff;stroke-miterlimit:10"/><path d="M1118.62,19a17,17,0,0,1,5.37.77,13.47,13.47,0,0,1,3.32,1.49c1.65,1.13,2.68.4,3.07-2.19h1.53c-.1,1.37-.17,3-.22,5s-.07,4.58-.07,7.84h-1.54a23.26,23.26,0,0,0-1.38-5.33,10.82,10.82,0,0,0-3-4.3,7.36,7.36,0,0,0-5-1.68,5.47,5.47,0,0,0-3.58,1.2,4.26,4.26,0,0,0-1.46,3.47,5.92,5.92,0,0,0,1.32,3.83,16.72,16.72,0,0,0,3.39,3.14q2.08,1.5,4.34,3.18a42.94,42.94,0,0,1,6.17,5.44,10.07,10.07,0,0,1,2.52,7.11,9,9,0,0,1-1.9,5.73,12.12,12.12,0,0,1-5,3.76,17.47,17.47,0,0,1-6.9,1.32,15.86,15.86,0,0,1-3.9-.44,13.37,13.37,0,0,1-3-1.1l-1.79-.84c-.56-.26-1.08-.49-1.57-.69a1.12,1.12,0,0,0-1.27.51,5.21,5.21,0,0,0-.84,2h-1.53c.09-1.56.17-3.46.21-5.7s.08-5.21.08-8.9h1.53a27.9,27.9,0,0,0,1.61,7,11.4,11.4,0,0,0,3.17,4.74,7.52,7.52,0,0,0,5.08,1.72,5.68,5.68,0,0,0,3.5-1.21,4.65,4.65,0,0,0,1.61-4,7.27,7.27,0,0,0-2.09-5.33,50.14,50.14,0,0,0-5.29-4.6q-2.34-1.91-4.41-3.76a17.38,17.38,0,0,1-3.4-4.09,9.75,9.75,0,0,1-1.31-5.07,8.79,8.79,0,0,1,1.75-5.55,10.68,10.68,0,0,1,4.63-3.4A16.86,16.86,0,0,1,1118.62,19Z" style="fill:none;stroke:#fff;stroke-miterlimit:10"/><path d="M1153.08,19.24V51c0,2,.35,3.43,1.06,4.16a4.89,4.89,0,0,0,3.61,1.09v1.53l-4.12-.18c-1.83-.07-3.69-.11-5.59-.11s-3.82,0-5.77.11l-4.38.18V56.25a4.91,4.91,0,0,0,3.62-1.09c.7-.73,1.06-2.12,1.06-4.16V28a9.28,9.28,0,0,0-1-4.85c-.66-1-1.89-1.57-3.69-1.57V20c1.56.15,3.07.22,4.53.22,2,0,3.95-.08,5.73-.25A39.58,39.58,0,0,0,1153.08,19.24Zm-5.7-18a7.32,7.32,0,0,1,4.86,1.5A5.08,5.08,0,0,1,1154,6.83a5.11,5.11,0,0,1-1.79,4.13,8.65,8.65,0,0,1-9.71,0,5.11,5.11,0,0,1-1.79-4.13,5.08,5.08,0,0,1,1.79-4.12A7.31,7.31,0,0,1,1147.38,1.21Z" style="fill:none;stroke:#fff;stroke-miterlimit:10"/><path d="M1175.05,71.51a38.39,38.39,0,0,1-8.07-.77,13.61,13.61,0,0,1-5.54-2.33,4.73,4.73,0,0,1-2-3.84,5.29,5.29,0,0,1,2-4,14.63,14.63,0,0,1,6.06-2.81l.66,1.17a6.85,6.85,0,0,0-2,2.37,6.08,6.08,0,0,0-.62,2.67,5.17,5.17,0,0,0,2.81,4.7,15.05,15.05,0,0,0,7.63,1.65,18.17,18.17,0,0,0,5.88-.88,9,9,0,0,0,4.08-2.63,6.37,6.37,0,0,0,1.5-4.3,4.86,4.86,0,0,0-1.61-3.69q-1.61-1.5-6.42-1.5h-4.53a18.77,18.77,0,0,1-5.21-.65,7.1,7.1,0,0,1-3.47-2.08,5.3,5.3,0,0,1-1.24-3.62,7.3,7.3,0,0,1,2.41-5.4,23.69,23.69,0,0,1,7.15-4.38l.73.58a25.62,25.62,0,0,0-2.59,1.87,3.1,3.1,0,0,0-1.21,2.51c0,1.56,1,2.34,2.92,2.34h8a20.47,20.47,0,0,1,10.07,2.23q4,2.22,4,7.41a10.86,10.86,0,0,1-2.3,6.64,15.69,15.69,0,0,1-7,4.93A33.38,33.38,0,0,1,1175.05,71.51Zm.73-29.27a18.1,18.1,0,0,1-10.36-2.81q-4.17-2.82-4.17-8.8t4.17-8.83a20.77,20.77,0,0,1,20.76,0q4.13,2.77,4.13,8.83t-4.13,8.8A18.08,18.08,0,0,1,1175.78,42.24Zm0-1.32a3.38,3.38,0,0,0,3.07-2.22q1.1-2.23,1.09-8.07t-1.09-8.07a3.21,3.21,0,0,0-6.1,0q-1.12,2.24-1.13,8.07t1.13,8.07A3.39,3.39,0,0,0,1175.78,40.92Zm11.39-15.62-1.46-.51a10.86,10.86,0,0,1,3.54-4.75,8.47,8.47,0,0,1,5.29-1.89,4.3,4.3,0,0,1,4.75,4.59,4.16,4.16,0,0,1-1.17,3.25,3.81,3.81,0,0,1-2.63,1.06,3.55,3.55,0,0,1-2.3-.87,3.69,3.69,0,0,1-1.2-2.67,9.36,9.36,0,0,1,1.24-4.63l.51.43a11.87,11.87,0,0,0-4.16,2.38A11.55,11.55,0,0,0,1187.17,25.3Z" style="fill:none;stroke:#fff;stroke-miterlimit:10"/><path d="M1228.41,19a13.75,13.75,0,0,1,5,.77,7.34,7.34,0,0,1,3,2.08,8.8,8.8,0,0,1,1.72,3.58,25.61,25.61,0,0,1,.55,5.91V51c0,2,.35,3.43,1,4.16a4.91,4.91,0,0,0,3.62,1.09v1.53l-4.16-.18c-1.85-.07-3.68-.11-5.48-.11s-3.66,0-5.44.11l-4,.18V56.25a3.74,3.74,0,0,0,3.07-1.09c.58-.73.87-2.12.87-4.16V28.29a12.41,12.41,0,0,0-.36-3.17,4,4,0,0,0-1.32-2.12,4.45,4.45,0,0,0-2.84-.77,6.56,6.56,0,0,0-5.15,2.41,8.94,8.94,0,0,0-2.08,6.06V51c0,2,.3,3.43.91,4.16a3.74,3.74,0,0,0,3,1.09v1.53l-3.83-.18c-1.68-.07-3.42-.11-5.22-.11s-3.75,0-5.69.11l-4.38.18V56.25a4.9,4.9,0,0,0,3.61-1.09c.71-.73,1.06-2.12,1.06-4.16V28a9.28,9.28,0,0,0-1-4.85c-.65-1-1.88-1.57-3.68-1.57V20c1.55.15,3.06.22,4.52.22,2,0,4-.08,5.73-.25a39.58,39.58,0,0,0,4.93-.77v6.57a11,11,0,0,1,5-5.26A15.74,15.74,0,0,1,1228.41,19Z" style="fill:none;stroke:#fff;stroke-miterlimit:10"/><path d="M1254.18,47.56a6.55,6.55,0,0,1,4.53,1.5,5.24,5.24,0,0,1,1.68,4.13,5.24,5.24,0,0,1-1.68,4.12,7.58,7.58,0,0,1-9,0,5.24,5.24,0,0,1-1.68-4.12,5.24,5.24,0,0,1,1.68-4.13A6.53,6.53,0,0,1,1254.18,47.56Z" style="fill:none;stroke:#fff;stroke-miterlimit:10"/></g></g></svg>